<svg width="50" height="50" viewBox="0 0 50 50" fill="none" xmlns="http://www.w3.org/2000/svg">
<path d="M42.7087 22.9173H39.5837V14.584C39.5837 13.4789 39.1447 12.4191 38.3633 11.6377C37.5819 10.8563 36.5221 10.4173 35.417 10.4173H27.0837V7.29232C27.0837 5.91098 26.5349 4.58622 25.5582 3.60947C24.5814 2.63272 23.2567 2.08398 21.8753 2.08398C20.494 2.08398 19.1692 2.63272 18.1925 3.60947C17.2157 4.58622 16.667 5.91098 16.667 7.29232V10.4173H8.33366C7.22859 10.4173 6.16878 10.8563 5.38738 11.6377C4.60598 12.4191 4.16699 13.4789 4.16699 14.584V22.5007H7.29199C10.417 22.5007 12.917 25.0007 12.917 28.1257C12.917 31.2506 10.417 33.7507 7.29199 33.7507H4.16699V41.6673C4.16699 42.7724 4.60598 43.8322 5.38738 44.6136C6.16878 45.395 7.22859 45.834 8.33366 45.834H16.2503V42.709C16.2503 39.584 18.7503 37.084 21.8753 37.084C25.0003 37.084 27.5003 39.584 27.5003 42.709V45.834H35.417C36.5221 45.834 37.5819 45.395 38.3633 44.6136C39.1447 43.8322 39.5837 42.7724 39.5837 41.6673V33.334H42.7087C44.09 33.334 45.4148 32.7852 46.3915 31.8085C47.3683 30.8317 47.917 29.507 47.917 28.1257C47.917 26.7443 47.3683 25.4196 46.3915 24.4428C45.4148 23.4661 44.09 22.9173 42.7087 22.9173Z" fill="white"/>
</svg>
