<svg width="50" height="50" viewBox="0 0 50 50" fill="none" xmlns="http://www.w3.org/2000/svg">
<path d="M45.3127 34.7713L37.1158 26.5744L14.0627 3.52129C13.2815 2.74004 12.5002 3.12442 11.719 3.91192L5.46895 10.1619C4.6877 10.9432 5.07833 11.3338 6.2502 11.7244C7.42208 12.115 7.8127 12.5057 7.8127 15.6307C7.8127 16.4119 10.1565 17.1932 10.1565 17.1932C10.4855 17.3067 10.7731 17.5163 10.9819 17.7948C11.1908 18.0733 11.3115 18.4079 11.3283 18.7557V20.7088C11.3283 20.7088 11.383 21.8557 14.0627 23.0525C14.2821 23.165 14.469 23.3318 14.6057 23.5369C14.7425 23.742 14.8245 23.9787 14.844 24.2244C14.844 27.3494 15.6252 27.74 15.6252 27.74L17.969 28.9119C17.969 28.9119 18.7502 29.3025 18.7502 29.6932C18.7502 32.0369 18.7502 33.2088 19.5315 33.5994C19.5315 33.5994 22.6565 34.7775 22.6565 35.5588V39.0744C22.6565 39.8557 23.4377 40.2463 24.219 40.2463H28.5158V40.6369L34.3752 46.4963C34.469 46.5932 34.5736 46.6791 34.6877 46.7525C34.8591 46.859 35.0558 46.9176 35.2575 46.9222C35.4592 46.9269 35.6585 46.8775 35.8346 46.7791C36.1627 46.6025 36.4596 46.376 36.7127 46.1057L45.3065 37.5119C45.515 37.3497 45.6838 37.1422 45.8001 36.905C45.9165 36.6678 45.9773 36.4073 45.9779 36.1431C45.9785 35.879 45.9189 35.6181 45.8036 35.3804C45.6884 35.1427 45.5205 34.9344 45.3127 34.7713ZM19.3674 26.115L18.0315 25.4494C17.9868 25.0426 17.9659 24.6336 17.969 24.2244C17.966 23.6488 17.849 23.0794 17.6248 22.5492C17.4006 22.019 17.0736 21.5385 16.6627 21.1354C16.3133 20.7795 15.9079 20.4834 15.4627 20.2588L14.4533 19.7307V18.7557C14.4536 18.0622 14.2995 17.3775 14.0022 16.751C13.7049 16.1245 13.2719 15.5721 12.7346 15.1338C12.1993 14.6771 11.5737 14.3384 10.8986 14.14C10.8733 13.1832 10.6731 12.239 10.308 11.3541C10.1459 10.9953 9.93846 10.6587 9.69083 10.3525L13.0783 6.96192L33.0471 26.9338C31.8976 28.0879 30.7749 29.2685 29.6799 30.4744C29.6799 30.4744 28.5018 31.6463 28.508 32.4275V37.115H25.7736V35.5525C25.766 34.7284 25.4778 33.9315 24.9565 33.2932C24.6891 32.9638 24.3809 32.6697 24.0393 32.4182C23.3634 31.9377 22.6398 31.5283 21.8799 31.1963C21.8799 31.04 21.8674 31.0244 21.8674 29.6932C21.8607 28.8769 21.5764 28.0872 21.0611 27.4541C20.817 27.1545 20.5368 26.8863 20.2268 26.6557C19.953 26.4529 19.6629 26.2732 19.3596 26.1182L19.3674 26.115ZM40.3299 37.79L37.0143 41.1025C36.57 41.5165 35.9823 41.7419 35.3751 41.7312C34.7679 41.7205 34.1886 41.4745 33.7592 41.0451C33.3298 40.6157 33.0838 40.0364 33.0731 39.4292C33.0624 38.822 33.2878 38.2343 33.7018 37.79L37.0143 34.476C37.2871 34.204 37.6227 34.0033 37.9914 33.8917C38.3601 33.7801 38.7506 33.7609 39.1285 33.836C39.5064 33.911 39.86 34.078 40.158 34.322C40.4561 34.5661 40.6895 34.8797 40.8377 35.2354C41.0157 35.6636 41.0624 36.135 40.972 36.5899C40.8816 37.0447 40.6581 37.4624 40.3299 37.79Z" fill="white"/>
</svg>
