<svg width="50" height="50" viewBox="0 0 50 50" fill="none" xmlns="http://www.w3.org/2000/svg">
<path d="M20.833 12.916C20.833 8.95768 18.333 5.41602 14.583 4.16602V11.8743H8.33301V4.16602C4.58301 5.41602 2.08301 8.95768 2.08301 12.916C2.08301 16.8743 4.58301 20.416 8.33301 21.666V44.5827C8.33301 45.416 8.74967 45.8327 9.37467 45.8327H13.5413C14.1663 45.8327 14.583 45.416 14.583 44.791V21.8744C18.333 20.6244 20.833 17.0827 20.833 12.916ZM33.333 16.666C25.208 16.8743 18.7497 23.3327 18.7497 31.2494C18.7497 39.3744 25.208 45.8327 33.333 45.8327C41.458 45.8327 47.9163 39.3744 47.9163 31.2494C47.9163 23.1244 41.458 16.666 33.333 16.666ZM33.333 41.666C27.4997 41.666 22.9163 37.0827 22.9163 31.2494C22.9163 25.416 27.4997 20.8327 33.333 20.8327C39.1663 20.8327 43.7497 25.416 43.7497 31.2494C43.7497 37.0827 39.1663 41.666 33.333 41.666ZM31.2497 22.916V33.3327L38.7497 37.916L40.4163 35.416L34.3747 31.8744V22.916H31.2497Z" fill="white"/>
</svg>
