<svg width="50" height="50" viewBox="0 0 50 50" fill="none" xmlns="http://www.w3.org/2000/svg">
<g clip-path="url(#clip0_328_150)">
<path d="M35.4163 4.16602C37.0105 4.16593 38.5445 4.77503 39.7044 5.86869C40.8643 6.96235 41.5624 8.45791 41.6559 10.0493L41.6663 10.416C43.3239 10.416 44.9137 11.0745 46.0858 12.2466C47.2579 13.4187 47.9163 15.0084 47.9163 16.666C47.9165 19.9001 46.6631 23.0084 44.4195 25.3378C42.176 27.6672 39.1169 29.0364 35.8851 29.1577L35.4163 29.166H27.083L27.3955 29.1764C28.3875 29.251 29.3201 29.678 30.0247 30.3803C30.7293 31.0826 31.1594 32.0138 31.2372 33.0056L31.2497 33.3327V41.666C31.25 42.7172 30.853 43.7297 30.1382 44.5005C29.4235 45.2713 28.4437 45.7434 27.3955 45.8223L27.083 45.8327H22.9163C21.8651 45.833 20.8527 45.436 20.0819 44.7212C19.3111 44.0065 18.8389 43.0268 18.7601 41.9785L18.7497 41.666V33.3327C18.7493 32.2815 19.1464 31.269 19.8611 30.4982C20.5759 29.7274 21.5556 29.2553 22.6038 29.1764L22.9163 29.166V27.0827C22.9164 26.5724 23.1037 26.0799 23.4428 25.6986C23.7819 25.3173 24.2492 25.0736 24.7559 25.0139L24.9997 24.9994H35.4163C37.6265 24.9994 39.7461 24.1214 41.3089 22.5586C42.8717 20.9958 43.7497 18.8762 43.7497 16.666C43.7496 16.1557 43.5623 15.6632 43.2232 15.2819C42.8841 14.9006 42.4169 14.657 41.9101 14.5973L41.6663 14.5827L41.6559 14.9494C41.5662 16.4777 40.9186 17.9199 39.8361 19.0024C38.7535 20.085 37.3113 20.7325 35.783 20.8223L35.4163 20.8327H14.583C12.9888 20.8328 11.4549 20.2237 10.295 19.13C9.13508 18.0363 8.43695 16.5408 8.34342 14.9494L8.33301 14.5827V10.416C8.33292 8.82183 8.94202 7.28786 10.0357 6.12797C11.1293 4.96808 12.6249 4.26996 14.2163 4.17643L14.583 4.16602H35.4163Z" fill="white"/>
</g>
<defs>
<clipPath id="clip0_328_150">
<rect width="50" height="50" fill="white"/>
</clipPath>
</defs>
</svg>
