<svg width="50" height="50" viewBox="0 0 50 50" fill="none" xmlns="http://www.w3.org/2000/svg">
<path d="M45.1077 36.4566L35.5023 26.8517C33.6075 24.9569 30.7776 24.5878 28.4973 25.7116L19.7532 16.9679V11.8742L9.25381 4L4.0041 9.24949L11.8787 19.7485H16.9725L25.7166 28.4921C24.601 30.7724 24.9619 33.6022 26.8567 35.4969L36.4621 45.1018C37.6596 46.2994 39.5955 46.2994 40.7849 45.1018L45.1077 40.7792C46.2971 39.5817 46.2971 37.6459 45.1077 36.4566ZM31.2124 22.4552C33.5337 22.4552 35.7156 23.3575 37.3562 24.9979L38.9475 26.5892C40.2435 26.0232 41.4739 25.2358 42.5402 24.1695C45.5834 21.1265 46.617 16.8448 45.649 12.9569C45.4686 12.2187 44.5417 11.9645 44.0003 12.5058L37.8975 18.6083L32.3279 17.6815L31.401 12.1121L37.5038 6.00957C38.0452 5.46822 37.7827 4.54135 37.0362 4.3527C33.1482 3.39303 28.8664 4.42652 25.8314 7.46138C23.4936 9.79904 22.3945 12.8831 22.4519 15.959L29.1863 22.6931C29.8507 22.5373 30.5397 22.4552 31.2124 22.4552ZM22.6898 29.1811L18.0389 24.5304L5.538 37.039C3.48733 39.0895 3.48733 42.4115 5.538 44.4621C7.58867 46.5126 10.9107 46.5126 12.9614 44.4621L23.0999 34.324C22.4765 32.6917 22.2878 30.9118 22.6898 29.1811ZM9.25381 42.715C8.17106 42.715 7.28517 41.8291 7.28517 40.7464C7.28517 39.6555 8.16285 38.7779 9.25381 38.7779C10.3448 38.7779 11.2224 39.6555 11.2224 40.7464C11.2224 41.8291 10.3448 42.715 9.25381 42.715Z" fill="white"/>
</svg>
